# xmcd
#
# Track frame offsets: 
#        150
#        21608
#        46249
#        68601
#        90962
#        104412
#        130276
#        154056
#        174696
#        200964
#        226117
#        243696
#        263348
#
# Disc length: 3800 seconds
#
# Revision: 1
# Processed by: cddbd v1.5.2PL0 Copyright (c) Steve Scherf et al.
# Submitted via: ExactAudioCopy v0.99pb4
#
DISCID=ad0ed60d
DTITLE=Takkyu Ishino - Title#1
DYEAR=2004
DGENRE=Techno
TTITLE0=Ich Bin...
TTITLE1=TBeisa
TTITLE2=One Track Mind
TTITLE3=Bush In Savanna
TTITLE4=Abuku No Hito
TTITLE5=Xthc
TTITLE6=Spelling Monkey
TTITLE7=Aoi Neon
TTITLE8=Twilights
TTITLE9=Mongol,Kangaroo
TTITLE10=The Rising Suns
TTITLE11=Go Sun
TTITLE12=Good Times
EXTD=YEAR: 2004
EXTT0=
EXTT1=
EXTT2=
EXTT3=
EXTT4=
EXTT5=
EXTT6=
EXTT7=
EXTT8=
EXTT9=
EXTT10=
EXTT11=
EXTT12=
PLAYORDER=
